<?xml version="1.0" encoding="utf-8"?>
<!-- Generator: Adobe Illustrator 21.0.0, SVG Export Plug-In . SVG Version: 6.00 Build 0)  -->
<svg version="1.1" id="Layer_1" xmlns="http://www.w3.org/2000/svg" xmlns:xlink="http://www.w3.org/1999/xlink" x="0px" y="0px"
	 viewBox="0 0 83 54.4" style="enable-background:new 0 0 83 54.4;" xml:space="preserve">
<style type="text/css">
	.st0{fill:#FFFFFF;}
</style>
<rect width="83" height="54.4"/>
<g>
	<path class="st0" d="M24.4,25.6h-1.2V19c0-0.5,0-1.2,0.1-1.9h0c-0.1,0.4-0.2,0.8-0.3,1l-3.4,7.5h-0.6l-3.4-7.5
		c-0.1-0.2-0.2-0.5-0.3-1h0c0,0.4,0.1,1,0.1,1.9v6.6h-1.1v-9.8h1.5l3.1,6.9c0.2,0.5,0.4,0.9,0.5,1.2h0c0.2-0.6,0.4-1,0.5-1.2
		l3.1-6.8h1.5V25.6"/>
	<path class="st0" d="M27.7,25.6h-1.1v-7h1.1V25.6 M27.9,16.1c0,0.2-0.1,0.4-0.2,0.5c-0.1,0.1-0.3,0.2-0.5,0.2
		c-0.2,0-0.4-0.1-0.5-0.2c-0.1-0.1-0.2-0.3-0.2-0.5c0-0.2,0.1-0.4,0.2-0.5c0.1-0.1,0.3-0.2,0.5-0.2c0.2,0,0.4,0.1,0.5,0.2
		C27.8,15.7,27.9,15.9,27.9,16.1"/>
	<path class="st0" d="M34.4,25.3c-0.6,0.3-1.2,0.5-1.9,0.5c-0.6,0-1.2-0.1-1.7-0.4c-0.5-0.3-0.9-0.7-1.2-1.3
		c-0.3-0.5-0.4-1.1-0.4-1.8c0-1.2,0.3-2.1,1-2.8c0.7-0.7,1.6-1.1,2.7-1.1c0.6,0,1.2,0.1,1.6,0.4V20c-0.5-0.4-1.1-0.5-1.7-0.5
		c-0.7,0-1.3,0.3-1.8,0.8c-0.5,0.5-0.7,1.2-0.7,2c0,0.8,0.2,1.5,0.7,1.9c0.4,0.5,1,0.7,1.8,0.7c0.6,0,1.2-0.2,1.7-0.6V25.3"/>
	<path class="st0" d="M39.5,19.8c-0.2-0.2-0.5-0.2-0.9-0.2c-0.5,0-0.9,0.2-1.2,0.7c-0.3,0.5-0.5,1.1-0.5,1.8v3.6h-1.1v-7h1.1v1.4h0
		c0.2-0.5,0.4-0.9,0.7-1.1c0.3-0.3,0.7-0.4,1.1-0.4c0.3,0,0.5,0,0.7,0.1V19.8"/>
	<path class="st0" d="M45.4,22.1c0-0.9-0.2-1.6-0.6-2c-0.4-0.5-1-0.7-1.7-0.7c-0.7,0-1.3,0.2-1.7,0.7c-0.4,0.5-0.6,1.2-0.6,2
		c0,0.8,0.2,1.5,0.6,2c0.4,0.5,1,0.7,1.7,0.7c0.7,0,1.3-0.2,1.7-0.7C45.2,23.7,45.4,23,45.4,22.1 M46.6,22.1c0,1.1-0.3,2-1,2.7
		c-0.6,0.7-1.5,1-2.6,1c-1,0-1.9-0.3-2.5-1c-0.6-0.7-0.9-1.5-0.9-2.6c0-1.2,0.3-2.1,1-2.8c0.6-0.7,1.5-1,2.7-1c1.1,0,1.9,0.3,2.5,1
		C46.3,20.1,46.6,21,46.6,22.1"/>
	<path class="st0" d="M51.9,23.8c0,0.6-0.2,1.1-0.7,1.5c-0.5,0.4-1.1,0.6-1.9,0.6c-0.7,0-1.3-0.1-1.8-0.4v-1.2
		c0.6,0.4,1.2,0.7,1.8,0.7c0.9,0,1.4-0.3,1.4-1c0-0.3-0.1-0.5-0.3-0.6c-0.2-0.2-0.6-0.4-1.2-0.7c-0.6-0.3-1.1-0.5-1.3-0.9
		c-0.3-0.3-0.4-0.7-0.4-1.2c0-0.6,0.2-1.1,0.7-1.5c0.5-0.4,1.1-0.6,1.8-0.6c0.6,0,1.1,0.1,1.5,0.3v1.1c-0.5-0.3-1-0.5-1.6-0.5
		c-0.4,0-0.7,0.1-0.9,0.3c-0.2,0.2-0.3,0.4-0.3,0.7c0,0.3,0.1,0.5,0.3,0.7c0.2,0.2,0.5,0.4,1.1,0.6c0.7,0.3,1.1,0.6,1.4,0.9
		C51.8,22.9,51.9,23.3,51.9,23.8"/>
	<path class="st0" d="M58.5,22.1c0-0.9-0.2-1.6-0.6-2c-0.4-0.5-1-0.7-1.7-0.7c-0.7,0-1.3,0.2-1.7,0.7c-0.4,0.5-0.6,1.2-0.6,2
		c0,0.8,0.2,1.5,0.6,2c0.4,0.5,1,0.7,1.7,0.7c0.7,0,1.3-0.2,1.7-0.7C58.3,23.7,58.5,23,58.5,22.1 M59.7,22.1c0,1.1-0.3,2-1,2.7
		c-0.6,0.7-1.5,1-2.6,1c-1,0-1.9-0.3-2.5-1c-0.6-0.7-0.9-1.5-0.9-2.6c0-1.2,0.3-2.1,1-2.8c0.6-0.7,1.5-1,2.7-1c1.1,0,1.9,0.3,2.5,1
		C59.4,20.1,59.7,21,59.7,22.1"/>
	<path class="st0" d="M64.3,16.2c-0.2-0.1-0.5-0.2-0.8-0.2c-0.8,0-1.2,0.5-1.2,1.5v1.1H64v1h-1.7v6.1h-1.1v-6.1H60v-1h1.2v-1.1
		c0-0.7,0.2-1.3,0.6-1.7c0.4-0.4,1-0.7,1.6-0.7c0.3,0,0.6,0,0.8,0.1V16.2"/>
	<path class="st0" d="M68.4,25.6c-0.3,0.2-0.6,0.2-1.1,0.2c-1.2,0-1.9-0.7-1.9-2.1v-4.2h-1.2v-1h1.2v-1.7l1.1-0.4v2.1h1.8v1h-1.8v4
		c0,0.5,0.1,0.8,0.2,1c0.2,0.2,0.4,0.3,0.8,0.3c0.3,0,0.5-0.1,0.7-0.2V25.6"/>
	<path class="st0" d="M32,32.3c0-1.3-0.8-2-2.3-2h-1.4v4h1.2c0.8,0,1.4-0.2,1.8-0.5C31.8,33.5,32,33,32,32.3 M33.2,32.3
		c0,1-0.3,1.7-1,2.3c-0.7,0.6-1.5,0.9-2.6,0.9h-1.3v3.7h-1.2v-9.8h2.7c1.1,0,1.9,0.3,2.5,0.8C32.9,30.6,33.2,31.4,33.2,32.3"/>
	<path class="st0" d="M38,35.6l-1.7,0.2c-0.6,0.1-1,0.2-1.2,0.4c-0.2,0.2-0.4,0.5-0.4,0.9c0,0.4,0.1,0.6,0.4,0.8
		c0.3,0.2,0.6,0.3,1,0.3c0.6,0,1-0.2,1.4-0.6c0.4-0.4,0.6-0.9,0.6-1.5V35.6 M39.1,39.2H38v-1.1h0c-0.5,0.8-1.2,1.3-2.2,1.3
		c-0.7,0-1.2-0.2-1.6-0.6c-0.4-0.4-0.6-0.9-0.6-1.5c0-1.3,0.8-2.1,2.3-2.3l2.1-0.3c0-1.2-0.5-1.8-1.5-1.8c-0.9,0-1.6,0.3-2.3,0.9
		v-1.2c0.2-0.2,0.6-0.3,1.1-0.4c0.5-0.1,1-0.2,1.3-0.2c1.7,0,2.5,0.9,2.5,2.6V39.2"/>
	<path class="st0" d="M44.6,33.3c-0.2-0.2-0.5-0.2-0.9-0.2c-0.5,0-0.9,0.2-1.2,0.7c-0.3,0.5-0.5,1.1-0.5,1.8v3.6h-1.1v-7h1.1v1.4h0
		c0.2-0.5,0.4-0.9,0.7-1.1c0.3-0.3,0.7-0.4,1.1-0.4c0.3,0,0.5,0,0.7,0.1V33.3"/>
	<path class="st0" d="M49.2,39.1c-0.3,0.2-0.6,0.2-1.1,0.2c-1.2,0-1.9-0.7-1.9-2.1v-4.2h-1.2v-1h1.2v-1.7l1.1-0.4v2.1h1.8v1h-1.8v4
		c0,0.5,0.1,0.8,0.2,1c0.2,0.2,0.4,0.3,0.8,0.3c0.3,0,0.5-0.1,0.7-0.2V39.1"/>
	<path class="st0" d="M56.3,39.2h-1.1v-4c0-1.5-0.6-2.2-1.7-2.2c-0.6,0-1,0.2-1.4,0.6c-0.4,0.4-0.6,1-0.6,1.6v4h-1.1v-7h1.1v1.2h0
		c0.5-0.9,1.3-1.3,2.3-1.3c0.8,0,1.4,0.3,1.8,0.8c0.4,0.5,0.6,1.2,0.6,2.1V39.2"/>
	<path class="st0" d="M62.5,35c0-0.6-0.2-1.2-0.5-1.5c-0.3-0.4-0.7-0.5-1.3-0.5c-0.5,0-1,0.2-1.4,0.6c-0.4,0.4-0.6,0.9-0.7,1.5H62.5
		 M63.7,35.9h-5c0,0.8,0.2,1.4,0.6,1.8c0.4,0.4,1,0.6,1.7,0.6c0.8,0,1.5-0.3,2.2-0.8v1c-0.6,0.5-1.4,0.7-2.5,0.7c-1,0-1.8-0.3-2.4-1
		c-0.6-0.6-0.9-1.5-0.9-2.7c0-0.7,0.1-1.3,0.4-1.9c0.3-0.6,0.7-1,1.2-1.3c0.5-0.3,1.1-0.5,1.7-0.5c0.9,0,1.6,0.3,2.2,0.9
		c0.5,0.6,0.8,1.4,0.8,2.5V35.9"/>
	<path class="st0" d="M68.7,33.3c-0.2-0.2-0.5-0.2-0.9-0.2c-0.5,0-0.9,0.2-1.2,0.7c-0.3,0.5-0.5,1.1-0.5,1.8v3.6H65v-7h1.1v1.4h0
		c0.2-0.5,0.4-0.9,0.7-1.1c0.3-0.3,0.7-0.4,1.1-0.4c0.3,0,0.5,0,0.7,0.1V33.3"/>
</g>
</svg>
