<?xml version="1.0" standalone="no"?>
<!DOCTYPE svg PUBLIC "-//W3C//DTD SVG 20010904//EN"
 "http://www.w3.org/TR/2001/REC-SVG-20010904/DTD/svg10.dtd">
<svg version="1.0" xmlns="http://www.w3.org/2000/svg"
 width="1000.000000pt" height="1000.000000pt" viewBox="0 0 1000.000000 1000.000000"
 preserveAspectRatio="xMidYMid meet">
<metadata>
Created by potrace 1.11, written by Peter Selinger 2001-2013
</metadata>
<g transform="translate(0.000000,1000.000000) scale(0.100000,-0.100000)"
fill="#000000" stroke="none">
<path d="M5172 8639 c-574 -31 -1101 -171 -1602 -424 -749 -380 -1325 -1021
-1643 -1830 -125 -319 -199 -617 -243 -990 -25 -210 -25 -717 0 -930 56 -477
173 -879 373 -1279 393 -786 1058 -1349 1938 -1640 225 -75 470 -130 750 -168
152 -20 210 -23 540 -23 407 0 519 9 795 66 271 55 477 127 755 264 500 246
873 575 1194 1055 128 191 314 521 300 533 -29 27 -413 247 -418 241 -4 -5
-38 -58 -76 -119 -276 -447 -612 -811 -955 -1033 -457 -297 -1038 -400 -1608
-286 -478 95 -870 360 -1140 771 -210 321 -380 804 -457 1301 -50 322 -59 475
-60 947 0 277 5 494 13 585 58 662 174 1128 383 1541 263 520 632 821 1126
920 137 27 418 37 560 20 590 -72 1038 -406 1418 -1054 143 -245 324 -660 446
-1019 l53 -158 213 0 213 0 0 88 c0 48 -9 575 -20 1172 -11 597 -20 1127 -20
1178 l0 92 -215 0 -214 0 -147 -131 c-96 -86 -152 -129 -163 -126 -9 3 -79 34
-156 70 -367 169 -791 294 -1160 341 -134 18 -440 36 -555 34 -41 0 -139 -4
-218 -9z"/>
</g>
</svg>
